<svg xmlns="http://www.w3.org/2000/svg" viewBox="0 0 600 400" width="600" height="400" preserveAspectRatio="xMidYMid slice">
  <defs>
    <linearGradient id="bg-pe" x1="0" y1="0" x2="0" y2="1">
      <stop offset="0%" stop-color="#1a2030"/>
      <stop offset="50%" stop-color="#2a3040"/>
      <stop offset="100%" stop-color="#0a0a10"/>
    </linearGradient>
    <linearGradient id="case-pe" x1="0" y1="0" x2="0" y2="1">
      <stop offset="0%" stop-color="#3a4050"/>
      <stop offset="40%" stop-color="#5a5a60"/>
      <stop offset="60%" stop-color="#3a3a40"/>
      <stop offset="100%" stop-color="#1a1a20"/>
    </linearGradient>
    <linearGradient id="screen-pe" x1="0" y1="0" x2="0" y2="1">
      <stop offset="0%" stop-color="#0a1810"/>
      <stop offset="100%" stop-color="#0a2010"/>
    </linearGradient>
    <linearGradient id="belt-pe" x1="0" y1="0" x2="0" y2="1">
      <stop offset="0%" stop-color="#2a2a2a"/>
      <stop offset="50%" stop-color="#4a4a4a"/>
      <stop offset="100%" stop-color="#1a1a1a"/>
    </linearGradient>
    <radialGradient id="glow-pe" cx="0.5" cy="0.4" r="0.5">
      <stop offset="0%" stop-color="#4ade80" stop-opacity="0.3"/>
      <stop offset="100%" stop-color="#000" stop-opacity="0"/>
    </radialGradient>
    <filter id="noise-pe">
      <feTurbulence type="fractalNoise" baseFrequency="0.9" numOctaves="2" seed="21"/>
      <feColorMatrix values="0 0 0 0 0 0 0 0 0 0 0 0 0 0 0 0 0 0 0.18 0"/>
    </filter>
  </defs>

  <rect width="600" height="400" fill="url(#bg-pe)"/>
  <circle cx="300" cy="180" r="180" fill="url(#glow-pe)"/>

  <!-- Floor -->
  <rect y="320" width="600" height="80" fill="#1a1a20"/>
  <line x1="0" y1="320" x2="600" y2="320" stroke="#3a3a3a" stroke-width="0.5"/>

  <!-- Garvens XS40 main machine -->
  <g transform="translate(140,90)">
    <!-- Main housing -->
    <rect x="0" y="0" width="320" height="220" rx="6" fill="url(#case-pe)"/>
    <rect x="2" y="2" width="316" height="216" rx="5" fill="none" stroke="#7a7a80" stroke-width="1.5"/>
    <rect x="0" y="0" width="320" height="20" rx="6" fill="#0a0a10"/>
    <rect x="0" y="20" width="320" height="3" fill="#3a3a40"/>
    <!-- Brand label top -->
    <text x="160" y="14" text-anchor="middle" font-family="Courier New, monospace" font-size="11" font-weight="700" fill="#c9a961">GARVENS · XS40</text>

    <!-- LCD Display -->
    <rect x="20" y="40" width="200" height="100" fill="url(#screen-pe)" stroke="#0a3a1a" stroke-width="2"/>
    <rect x="22" y="42" width="196" height="96" fill="none" stroke="#1a5a2a" stroke-width="0.5"/>
    <!-- Display content: digital readout -->
    <text x="120" y="75" text-anchor="middle" font-family="Courier New, monospace" font-size="28" font-weight="700" fill="#4ade80">254.7 g</text>
    <text x="120" y="92" text-anchor="middle" font-family="Courier New, monospace" font-size="9" fill="#4ade80" opacity="0.8">TARGET: 250.0 g</text>
    <text x="120" y="110" text-anchor="middle" font-family="Courier New, monospace" font-size="8" fill="#fbbf24" opacity="0.9">± 0.5% OK</text>
    <line x1="30" y1="125" x2="210" y2="125" stroke="#1a5a2a" stroke-width="0.5"/>
    <text x="30" y="135" font-family="Courier New, monospace" font-size="6" fill="#4ade80" opacity="0.6">PROD: 1,847 u/h</text>
    <text x="180" y="135" font-family="Courier New, monospace" font-size="6" fill="#4ade80" opacity="0.6" text-anchor="end">SHIFT: 14,392</text>

    <!-- Buttons (control panel) -->
    <g transform="translate(240,40)">
      <rect x="0" y="0" width="60" height="100" fill="#1a1a20" stroke="#3a3a40" stroke-width="0.8"/>
      <circle cx="30" cy="15" r="6" fill="#4ade80"/>
      <circle cx="30" cy="15" r="3" fill="#0a0a10"/>
      <circle cx="30" cy="35" r="5" fill="#1a1a1a" stroke="#5a5a60" stroke-width="1"/>
      <circle cx="30" cy="55" r="5" fill="#fbbf24"/>
      <circle cx="30" cy="75" r="5" fill="#1a1a1a" stroke="#5a5a60" stroke-width="1"/>
      <rect x="10" y="88" width="40" height="8" fill="#1a1a1a" stroke="#5a5a60" stroke-width="0.5"/>
    </g>

    <!-- Conveyor belt at bottom -->
    <rect x="0" y="160" width="320" height="40" fill="url(#belt-pe)"/>
    <line x1="0" y1="160" x2="320" y2="160" stroke="#1a1a1a" stroke-width="2"/>
    <line x1="0" y1="200" x2="320" y2="200" stroke="#1a1a1a" stroke-width="2"/>
    <!-- Belt rollers visible -->
    <g fill="#1a1a1a" stroke="#5a5a5a" stroke-width="0.5">
      <circle cx="20" cy="180" r="4"/>
      <circle cx="60" cy="180" r="4"/>
      <circle cx="100" cy="180" r="4"/>
      <circle cx="140" cy="180" r="4"/>
      <circle cx="180" cy="180" r="4"/>
      <circle cx="220" cy="180" r="4"/>
      <circle cx="260" cy="180" r="4"/>
      <circle cx="300" cy="180" r="4"/>
    </g>

    <!-- Side feet -->
    <rect x="20" y="218" width="20" height="10" fill="#1a1a20"/>
    <rect x="280" y="218" width="20" height="10" fill="#1a1a20"/>
  </g>

  <!-- Pepsi products on the belt -->
  <g>
    <rect x="170" y="240" width="35" height="40" fill="#c9302c"/>
    <rect x="170" y="240" width="35" height="5" fill="#0a3a8a"/>
    <text x="187" y="265" text-anchor="middle" font-family="Arial Black" font-size="8" font-weight="900" fill="#fff">PEPSI</text>
  </g>
  <g>
    <rect x="220" y="240" width="35" height="40" fill="#c9302c"/>
    <rect x="220" y="240" width="35" height="5" fill="#0a3a8a"/>
    <text x="237" y="265" text-anchor="middle" font-family="Arial Black" font-size="8" font-weight="900" fill="#fff">PEPSI</text>
  </g>
  <g>
    <rect x="270" y="240" width="35" height="40" fill="#c9302c"/>
    <rect x="270" y="240" width="35" height="5" fill="#0a3a8a"/>
    <text x="287" y="265" text-anchor="middle" font-family="Arial Black" font-size="8" font-weight="900" fill="#fff">PEPSI</text>
  </g>
  <g>
    <rect x="320" y="240" width="35" height="40" fill="#c9302c"/>
    <rect x="320" y="240" width="35" height="5" fill="#0a3a8a"/>
    <text x="337" y="265" text-anchor="middle" font-family="Arial Black" font-size="8" font-weight="900" fill="#fff">PEPSI</text>
  </g>

  <!-- Subtle LED indicators -->
  <circle cx="180" cy="320" r="2" fill="#4ade80" opacity="0.8"/>
  <circle cx="200" cy="320" r="2" fill="#4ade80" opacity="0.6"/>
  <circle cx="220" cy="320" r="2" fill="#4ade80" opacity="0.4"/>

  <rect width="600" height="400" filter="url(#noise-pe)" opacity="0.5"/>

  <radialGradient id="vig-pe" cx="0.5" cy="0.5" r="0.7">
    <stop offset="60%" stop-color="#000" stop-opacity="0"/>
    <stop offset="100%" stop-color="#000" stop-opacity="0.7"/>
  </radialGradient>
  <rect width="600" height="400" fill="url(#vig-pe)"/>

  <rect x="20" y="340" width="380" height="50" fill="#0d0e12" opacity="0.9"/>
  <rect x="20" y="340" width="3" height="50" fill="#c9a961"/>
  <text x="38" y="362" font-family="Georgia, serif" font-size="20" font-weight="700" fill="#c9a961" letter-spacing="2">PEPSICO</text>
  <text x="38" y="380" font-family="Arial, sans-serif" font-size="9" fill="#a0aec0" letter-spacing="3">CONTROLADORA GARVENS XS40 · PLANTA ARABA · 3,6K€</text>
</svg>
