<svg xmlns="http://www.w3.org/2000/svg" viewBox="0 0 600 400" width="600" height="400" preserveAspectRatio="xMidYMid slice">
  <defs>
    <linearGradient id="sky-sm" x1="0" y1="0" x2="0" y2="1">
      <stop offset="0%" stop-color="#1a1d24"/>
      <stop offset="60%" stop-color="#2a2d34"/>
      <stop offset="100%" stop-color="#3a3d44"/>
    </linearGradient>
    <linearGradient id="floor-sm" x1="0" y1="0" x2="0" y2="1">
      <stop offset="0%" stop-color="#4a4030"/>
      <stop offset="100%" stop-color="#1a1208"/>
    </linearGradient>
    <linearGradient id="bottle-sm" x1="0" y1="0" x2="1" y2="0">
      <stop offset="0%" stop-color="#2a1a08"/>
      <stop offset="30%" stop-color="#8a6420"/>
      <stop offset="50%" stop-color="#c9a961"/>
      <stop offset="70%" stop-color="#8a6420"/>
      <stop offset="100%" stop-color="#2a1a08"/>
    </linearGradient>
    <linearGradient id="glass-sm" x1="0" y1="0" x2="1" y2="0">
      <stop offset="0%" stop-color="#3a3a3a" stop-opacity="0.4"/>
      <stop offset="20%" stop-color="#a0a0a0" stop-opacity="0.7"/>
      <stop offset="40%" stop-color="#e0e0e0" stop-opacity="0.9"/>
      <stop offset="60%" stop-color="#a0a0a0" stop-opacity="0.7"/>
      <stop offset="100%" stop-color="#3a3a3a" stop-opacity="0.4"/>
    </linearGradient>
    <linearGradient id="label-sm" x1="0" y1="0" x2="0" y2="1">
      <stop offset="0%" stop-color="#f4e4b8"/>
      <stop offset="100%" stop-color="#c9a961"/>
    </linearGradient>
    <linearGradient id="metal-sm" x1="0" y1="0" x2="0" y2="1">
      <stop offset="0%" stop-color="#7a7a7a"/>
      <stop offset="50%" stop-color="#3a3a3a"/>
      <stop offset="100%" stop-color="#1a1a1a"/>
    </linearGradient>
    <radialGradient id="glow-sm" cx="0.5" cy="0.6" r="0.5">
      <stop offset="0%" stop-color="#c9a961" stop-opacity="0.3"/>
      <stop offset="100%" stop-color="#c9a961" stop-opacity="0"/>
    </radialGradient>
    <filter id="noise-sm">
      <feTurbulence type="fractalNoise" baseFrequency="0.85" numOctaves="2" seed="7"/>
      <feColorMatrix values="0 0 0 0 0 0 0 0 0 0 0 0 0 0 0 0 0 0 0.12 0"/>
    </filter>
  </defs>

  <rect width="600" height="400" fill="url(#sky-sm)"/>
  <rect y="280" width="600" height="120" fill="url(#floor-sm)"/>
  <circle cx="300" cy="220" r="180" fill="url(#glow-sm)"/>

  <!-- Distant conveyor line (perspective) -->
  <line x1="100" y1="200" x2="200" y2="220" stroke="#2a2a2a" stroke-width="3"/>
  <line x1="500" y1="200" x2="400" y2="220" stroke="#2a2a2a" stroke-width="3"/>
  <line x1="200" y1="220" x2="400" y2="220" stroke="#1a1a1a" stroke-width="6"/>
  <line x1="200" y1="220" x2="400" y2="220" stroke="#5a5a5a" stroke-width="1"/>

  <!-- Conveyor rollers (perspective) -->
  <g fill="url(#metal-sm)">
    <ellipse cx="220" cy="220" rx="6" ry="2"/>
    <ellipse cx="240" cy="220" rx="6" ry="2"/>
    <ellipse cx="260" cy="220" rx="6" ry="2"/>
    <ellipse cx="280" cy="220" rx="6" ry="2"/>
    <ellipse cx="300" cy="220" rx="6" ry="2"/>
    <ellipse cx="320" cy="220" rx="6" ry="2"/>
    <ellipse cx="340" cy="220" rx="6" ry="2"/>
    <ellipse cx="360" cy="220" rx="6" ry="2"/>
    <ellipse cx="380" cy="220" rx="6" ry="2"/>
  </g>

  <!-- Background bottles line (depth) -->
  <g opacity="0.7">
    <rect x="200" y="180" width="14" height="40" fill="url(#bottle-sm)"/>
    <rect x="220" y="180" width="14" height="40" fill="url(#bottle-sm)"/>
    <rect x="240" y="180" width="14" height="40" fill="url(#bottle-sm)"/>
    <rect x="260" y="180" width="14" height="40" fill="url(#bottle-sm)"/>
    <rect x="280" y="180" width="14" height="40" fill="url(#bottle-sm)"/>
    <rect x="300" y="180" width="14" height="40" fill="url(#bottle-sm)"/>
    <rect x="320" y="180" width="14" height="40" fill="url(#bottle-sm)"/>
    <rect x="340" y="180" width="14" height="40" fill="url(#bottle-sm)"/>
    <rect x="360" y="180" width="14" height="40" fill="url(#bottle-sm)"/>
    <rect x="380" y="180" width="14" height="40" fill="url(#bottle-sm)"/>
  </g>

  <!-- Foreground hero bottles (3 main bottles) -->
  <g>
    <!-- Bottle 1 -->
    <g transform="translate(180,80)">
      <path d="M14 0 L14 8 L8 18 L8 35 L20 35 L20 18 L14 8 L14 0" fill="url(#glass-sm)" opacity="0.5"/>
      <path d="M5 35 Q5 32 8 32 L20 32 Q23 32 23 35 L23 200 Q23 210 14 210 Q5 210 5 200 Z" fill="url(#bottle-sm)"/>
      <path d="M5 35 Q5 32 8 32 L20 32 Q23 32 23 35 L23 60 L5 60 Z" fill="url(#glass-sm)" opacity="0.6"/>
      <!-- Cap -->
      <rect x="10" y="28" width="8" height="6" fill="#1a1208"/>
      <!-- Label -->
      <rect x="6" y="100" width="16" height="50" fill="url(#label-sm)"/>
      <line x1="7" y1="108" x2="21" y2="108" stroke="#1a1208" stroke-width="0.3"/>
      <line x1="7" y1="112" x2="21" y2="112" stroke="#1a1208" stroke-width="0.3"/>
      <line x1="7" y1="116" x2="21" y2="116" stroke="#1a1208" stroke-width="0.3"/>
      <line x1="7" y1="120" x2="21" y2="120" stroke="#1a1208" stroke-width="0.3"/>
      <line x1="7" y1="124" x2="21" y2="124" stroke="#1a1208" stroke-width="0.3"/>
      <line x1="7" y1="128" x2="21" y2="128" stroke="#1a1208" stroke-width="0.3"/>
      <line x1="7" y1="132" x2="21" y2="132" stroke="#1a1208" stroke-width="0.3"/>
      <line x1="7" y1="136" x2="21" y2="136" stroke="#1a1208" stroke-width="0.3"/>
      <line x1="7" y1="140" x2="21" y2="140" stroke="#1a1208" stroke-width="0.3"/>
      <line x1="7" y1="144" x2="21" y2="144" stroke="#1a1208" stroke-width="0.3"/>
      <!-- highlight -->
      <ellipse cx="9" cy="80" rx="1.5" ry="35" fill="#fff" opacity="0.3"/>
    </g>

    <!-- Bottle 2 (center, largest) -->
    <g transform="translate(285,60)">
      <path d="M16 0 L16 10 L9 22 L9 42 L23 42 L23 22 L16 10 L16 0" fill="url(#glass-sm)" opacity="0.5"/>
      <path d="M6 42 Q6 38 9 38 L23 38 Q26 38 26 42 L26 220 Q26 232 16 232 Q6 232 6 220 Z" fill="url(#bottle-sm)"/>
      <path d="M6 42 Q6 38 9 38 L23 38 Q26 38 26 42 L26 70 L6 70 Z" fill="url(#glass-sm)" opacity="0.6"/>
      <rect x="11" y="34" width="10" height="7" fill="#1a1208"/>
      <!-- Main label with brand -->
      <rect x="7" y="110" width="18" height="65" fill="url(#label-sm)"/>
      <text x="16" y="128" text-anchor="middle" font-family="Georgia, serif" font-size="6" font-weight="700" fill="#1a1208">SAN</text>
      <text x="16" y="138" text-anchor="middle" font-family="Georgia, serif" font-size="6" font-weight="700" fill="#1a1208">MIGUEL</text>
      <line x1="8" y1="145" x2="24" y2="145" stroke="#1a1208" stroke-width="0.3"/>
      <line x1="8" y1="150" x2="24" y2="150" stroke="#1a1208" stroke-width="0.3"/>
      <line x1="8" y1="155" x2="24" y2="155" stroke="#1a1208" stroke-width="0.3"/>
      <line x1="8" y1="160" x2="24" y2="160" stroke="#1a1208" stroke-width="0.3"/>
      <line x1="8" y1="165" x2="24" y2="165" stroke="#1a1208" stroke-width="0.3"/>
      <ellipse cx="10" cy="95" rx="2" ry="40" fill="#fff" opacity="0.35"/>
    </g>

    <!-- Bottle 3 -->
    <g transform="translate(385,80)">
      <path d="M14 0 L14 8 L8 18 L8 35 L20 35 L20 18 L14 8 L14 0" fill="url(#glass-sm)" opacity="0.5"/>
      <path d="M5 35 Q5 32 8 32 L20 32 Q23 32 23 35 L23 200 Q23 210 14 210 Q5 210 5 200 Z" fill="url(#bottle-sm)"/>
      <path d="M5 35 Q5 32 8 32 L20 32 Q23 32 23 35 L23 60 L5 60 Z" fill="url(#glass-sm)" opacity="0.6"/>
      <rect x="10" y="28" width="8" height="6" fill="#1a1208"/>
      <rect x="6" y="100" width="16" height="50" fill="url(#label-sm)"/>
      <line x1="7" y1="108" x2="21" y2="108" stroke="#1a1208" stroke-width="0.3"/>
      <line x1="7" y1="112" x2="21" y2="112" stroke="#1a1208" stroke-width="0.3"/>
      <line x1="7" y1="116" x2="21" y2="116" stroke="#1a1208" stroke-width="0.3"/>
      <line x1="7" y1="120" x2="21" y2="120" stroke="#1a1208" stroke-width="0.3"/>
      <line x1="7" y1="124" x2="21" y2="124" stroke="#1a1208" stroke-width="0.3"/>
      <line x1="7" y1="128" x2="21" y2="128" stroke="#1a1208" stroke-width="0.3"/>
      <line x1="7" y1="132" x2="21" y2="132" stroke="#1a1208" stroke-width="0.3"/>
      <line x1="7" y1="136" x2="21" y2="136" stroke="#1a1208" stroke-width="0.3"/>
      <line x1="7" y1="140" x2="21" y2="140" stroke="#1a1208" stroke-width="0.3"/>
      <line x1="7" y1="144" x2="21" y2="144" stroke="#1a1208" stroke-width="0.3"/>
      <ellipse cx="9" cy="80" rx="1.5" ry="35" fill="#fff" opacity="0.3"/>
    </g>
  </g>

  <!-- Foreground control panel (industrial equipment) -->
  <g transform="translate(40,250)">
    <rect x="0" y="0" width="120" height="60" fill="#1a1a1a"/>
    <rect x="2" y="2" width="116" height="56" fill="none" stroke="#5a5a5a" stroke-width="1"/>
    <rect x="10" y="10" width="50" height="20" fill="#0a0a0a"/>
    <line x1="15" y1="15" x2="55" y2="15" stroke="#4ade80" stroke-width="0.8"/>
    <line x1="15" y1="20" x2="45" y2="20" stroke="#4ade80" stroke-width="0.8"/>
    <line x1="15" y1="25" x2="50" y2="25" stroke="#4ade80" stroke-width="0.8"/>
    <circle cx="80" cy="15" r="4" fill="#4ade80"/>
    <circle cx="95" cy="15" r="4" fill="#1a1a1a" stroke="#5a5a5a" stroke-width="1"/>
    <circle cx="80" cy="30" r="4" fill="#1a1a1a" stroke="#5a5a5a" stroke-width="1"/>
    <circle cx="95" cy="30" r="4" fill="#fbbf24"/>
    <rect x="10" y="40" width="100" height="14" fill="#0a0a0a"/>
    <text x="60" y="51" text-anchor="middle" font-family="Courier New, monospace" font-size="9" fill="#4ade80">ESCrapalia 35 pujas</text>
  </g>

  <!-- Spray/jets industrial atmosphere -->
  <ellipse cx="450" cy="280" rx="40" ry="6" fill="#5a5a5a" opacity="0.3"/>
  <ellipse cx="500" cy="285" rx="30" ry="5" fill="#5a5a5a" opacity="0.2"/>

  <!-- Ground shadow -->
  <ellipse cx="316" cy="295" rx="160" ry="6" fill="#000" opacity="0.5"/>

  <rect width="600" height="400" filter="url(#noise-sm)" opacity="0.3"/>

  <radialGradient id="vig-sm" cx="0.5" cy="0.5" r="0.7">
    <stop offset="55%" stop-color="#000" stop-opacity="0"/>
    <stop offset="100%" stop-color="#000" stop-opacity="0.6"/>
  </radialGradient>
  <rect width="600" height="400" fill="url(#vig-sm)"/>

  <!-- Title -->
  <rect x="20" y="340" width="380" height="50" fill="#0d0e12" opacity="0.9"/>
  <rect x="20" y="340" width="3" height="50" fill="#c9a961"/>
  <text x="38" y="362" font-family="Georgia, serif" font-size="20" font-weight="700" fill="#c9a961" letter-spacing="2">SAN MIGUEL</text>
  <text x="38" y="380" font-family="Arial, sans-serif" font-size="9" fill="#a0aec0" letter-spacing="3">LÍNEA DE EMBOTELLADO · MÁLAGA · 100% REEMPLEO</text>
</svg>
