<svg xmlns="http://www.w3.org/2000/svg" viewBox="0 0 600 400" width="600" height="400" preserveAspectRatio="xMidYMid slice">
  <defs>
    <linearGradient id="ocean-bg" x1="0" y1="0" x2="0" y2="1">
      <stop offset="0%" stop-color="#0a1a2a"/>
      <stop offset="50%" stop-color="#1a3a5a"/>
      <stop offset="100%" stop-color="#0a1a2a"/>
    </linearGradient>
    <linearGradient id="sea-bottom" x1="0" y1="0" x2="0" y2="1">
      <stop offset="0%" stop-color="#3a2818"/>
      <stop offset="100%" stop-color="#1a0e04"/>
    </linearGradient>
    <linearGradient id="can-1" x1="0" y1="0" x2="0" y2="1">
      <stop offset="0%" stop-color="#f4e4b8"/>
      <stop offset="20%" stop-color="#c9a961"/>
      <stop offset="80%" stop-color="#8a6420"/>
      <stop offset="100%" stop-color="#3a2810"/>
    </linearGradient>
    <linearGradient id="can-2" x1="0" y1="0" x2="0" y2="1">
      <stop offset="0%" stop-color="#dadada"/>
      <stop offset="50%" stop-color="#7a7a7a"/>
      <stop offset="100%" stop-color="#2a2a2a"/>
    </linearGradient>
    <linearGradient id="can-3" x1="0" y1="0" x2="0" y2="1">
      <stop offset="0%" stop-color="#e8b878"/>
      <stop offset="50%" stop-color="#c9a961"/>
      <stop offset="100%" stop-color="#3a2810"/>
    </linearGradient>
    <radialGradient id="light-cf" cx="0.5" cy="0.4" r="0.6">
      <stop offset="0%" stop-color="#c9a961" stop-opacity="0.2"/>
      <stop offset="100%" stop-color="#000" stop-opacity="0"/>
    </radialGradient>
    <filter id="noise-na">
      <feTurbulence type="fractalNoise" baseFrequency="0.8" numOctaves="2" seed="13"/>
      <feColorMatrix values="0 0 0 0 0 0 0 0 0 0 0 0 0 0 0 0 0 0 0.15 0"/>
    </filter>
  </defs>

  <!-- Sea background -->
  <rect width="600" height="400" fill="url(#ocean-bg)"/>
  <ellipse cx="300" cy="200" rx="400" ry="250" fill="url(#light-cf)"/>

  <!-- Sea waves -->
  <path d="M0 80 Q60 70 120 80 T240 80 T360 80 T480 80 T600 80 L600 90 L0 90 Z" fill="#1a3a5a" opacity="0.6"/>
  <path d="M0 110 Q60 100 120 110 T240 110 T360 110 T480 110 T600 110 L600 120 L0 120 Z" fill="#0a2a4a" opacity="0.7"/>

  <!-- Sea bottom (sand) -->
  <path d="M0 320 Q100 300 200 320 T400 320 T600 320 L600 400 L0 400 Z" fill="url(#sea-bottom)"/>

  <!-- Production line / conveyor -->
  <line x1="0" y1="290" x2="600" y2="290" stroke="#1a1a1a" stroke-width="4"/>
  <line x1="0" y1="290" x2="600" y2="290" stroke="#5a5a5a" stroke-width="0.5"/>
  <g fill="#3a3a3a">
    <ellipse cx="50" cy="295" rx="6" ry="2"/>
    <ellipse cx="100" cy="295" rx="6" ry="2"/>
    <ellipse cx="150" cy="295" rx="6" ry="2"/>
    <ellipse cx="200" cy="295" rx="6" ry="2"/>
    <ellipse cx="250" cy="295" rx="6" ry="2"/>
    <ellipse cx="300" cy="295" rx="6" ry="2"/>
    <ellipse cx="350" cy="295" rx="6" ry="2"/>
    <ellipse cx="400" cy="295" rx="6" ry="2"/>
    <ellipse cx="450" cy="295" rx="6" ry="2"/>
    <ellipse cx="500" cy="295" rx="6" ry="2"/>
    <ellipse cx="550" cy="295" rx="6" ry="2"/>
  </g>

  <!-- Cans on the line (3 hero cans) -->
  <g>
    <!-- Can 1 (left, dark) -->
    <g transform="translate(110,80)">
      <ellipse cx="40" cy="6" rx="40" ry="6" fill="url(#can-2)"/>
      <ellipse cx="40" cy="6" rx="40" ry="6" fill="none" stroke="#0a0a0a" stroke-width="0.6"/>
      <path d="M0 6 L0 200 Q0 210 40 210 Q80 210 80 200 L80 6" fill="url(#can-2)"/>
      <ellipse cx="40" cy="200" rx="40" ry="6" fill="#1a1a1a"/>
      <!-- Label band -->
      <rect x="2" y="60" width="76" height="100" fill="#3a3a3a"/>
      <rect x="2" y="60" width="76" height="100" fill="url(#can-3)" opacity="0.3"/>
      <text x="40" y="100" text-anchor="middle" font-family="Georgia, serif" font-size="14" font-weight="700" fill="#c9a961">CALVO</text>
      <line x1="6" y1="110" x2="74" y2="110" stroke="#c9a961" stroke-width="0.6" opacity="0.7"/>
      <line x1="6" y1="115" x2="74" y2="115" stroke="#c9a961" stroke-width="0.6" opacity="0.7"/>
      <line x1="6" y1="120" x2="74" y2="120" stroke="#c9a961" stroke-width="0.6" opacity="0.7"/>
      <line x1="6" y1="125" x2="74" y2="125" stroke="#c9a961" stroke-width="0.6" opacity="0.7"/>
      <line x1="6" y1="130" x2="74" y2="130" stroke="#c9a961" stroke-width="0.6" opacity="0.7"/>
      <line x1="6" y1="135" x2="74" y2="135" stroke="#c9a961" stroke-width="0.6" opacity="0.7"/>
      <line x1="6" y1="140" x2="74" y2="140" stroke="#c9a961" stroke-width="0.6" opacity="0.7"/>
      <line x1="6" y1="145" x2="74" y2="145" stroke="#c9a961" stroke-width="0.6" opacity="0.7"/>
      <line x1="6" y1="150" x2="74" y2="150" stroke="#c9a961" stroke-width="0.6" opacity="0.7"/>
      <!-- Fish icon -->
      <path d="M15 92 Q22 85 30 92 Q38 99 46 92 Q54 85 62 92" fill="none" stroke="#c9a961" stroke-width="0.8"/>
      <!-- Highlight -->
      <ellipse cx="15" cy="50" rx="3" ry="60" fill="#fff" opacity="0.25"/>
    </g>

    <!-- Can 2 (center, larger) -->
    <g transform="translate(240,50)">
      <ellipse cx="55" cy="8" rx="55" ry="8" fill="url(#can-1)"/>
      <ellipse cx="55" cy="8" rx="55" ry="8" fill="none" stroke="#1a0e04" stroke-width="0.8"/>
      <path d="M0 8 L0 250 Q0 265 55 265 Q110 265 110 250 L110 8" fill="url(#can-1)"/>
      <ellipse cx="55" cy="250" rx="55" ry="8" fill="#3a2810"/>
      <rect x="2" y="80" width="106" height="120" fill="#1a1208"/>
      <rect x="2" y="80" width="106" height="120" fill="url(#can-3)" opacity="0.4"/>
      <text x="55" y="125" text-anchor="middle" font-family="Georgia, serif" font-size="18" font-weight="700" fill="#0d0e12">CALVO</text>
      <line x1="6" y1="135" x2="104" y2="135" stroke="#0d0e12" stroke-width="0.6"/>
      <line x1="6" y1="140" x2="104" y2="140" stroke="#0d0e12" stroke-width="0.6"/>
      <line x1="6" y1="145" x2="104" y2="145" stroke="#0d0e12" stroke-width="0.6"/>
      <line x1="6" y1="150" x2="104" y2="150" stroke="#0d0e12" stroke-width="0.6"/>
      <line x1="6" y1="155" x2="104" y2="155" stroke="#0d0e12" stroke-width="0.6"/>
      <line x1="6" y1="160" x2="104" y2="160" stroke="#0d0e12" stroke-width="0.6"/>
      <line x1="6" y1="165" x2="104" y2="165" stroke="#0d0e12" stroke-width="0.6"/>
      <line x1="6" y1="170" x2="104" y2="170" stroke="#0d0e12" stroke-width="0.6"/>
      <line x1="6" y1="175" x2="104" y2="175" stroke="#0d0e12" stroke-width="0.6"/>
      <line x1="6" y1="180" x2="104" y2="180" stroke="#0d0e12" stroke-width="0.6"/>
      <line x1="6" y1="185" x2="104" y2="185" stroke="#0d0e12" stroke-width="0.6"/>
      <line x1="6" y1="190" x2="104" y2="190" stroke="#0d0e12" stroke-width="0.6"/>
      <ellipse cx="20" cy="70" rx="4" ry="70" fill="#fff" opacity="0.35"/>
    </g>

    <!-- Can 3 (right) -->
    <g transform="translate(420,90)">
      <ellipse cx="35" cy="5" rx="35" ry="5" fill="url(#can-2)"/>
      <path d="M0 5 L0 180 Q0 190 35 190 Q70 190 70 180 L70 5" fill="url(#can-2)"/>
      <ellipse cx="35" cy="180" rx="35" ry="5" fill="#1a1a1a"/>
      <rect x="2" y="50" width="66" height="90" fill="#2a2a2a"/>
      <rect x="2" y="50" width="66" height="90" fill="url(#can-3)" opacity="0.4"/>
      <text x="35" y="85" text-anchor="middle" font-family="Georgia, serif" font-size="12" font-weight="700" fill="#c9a961">CALVO</text>
      <line x1="6" y1="92" x2="64" y2="92" stroke="#c9a961" stroke-width="0.5"/>
      <line x1="6" y1="97" x2="64" y2="97" stroke="#c9a961" stroke-width="0.5"/>
      <line x1="6" y1="102" x2="64" y2="102" stroke="#c9a961" stroke-width="0.5"/>
      <line x1="6" y1="107" x2="64" y2="107" stroke="#c9a961" stroke-width="0.5"/>
      <line x1="6" y1="112" x2="64" y2="112" stroke="#c9a961" stroke-width="0.5"/>
      <line x1="6" y1="117" x2="64" y2="117" stroke="#c9a961" stroke-width="0.5"/>
      <line x1="6" y1="122" x2="64" y2="122" stroke="#c9a961" stroke-width="0.5"/>
      <line x1="6" y1="127" x2="64" y2="127" stroke="#c9a961" stroke-width="0.5"/>
      <line x1="6" y1="132" x2="64" y2="132" stroke="#c9a961" stroke-width="0.5"/>
      <ellipse cx="12" cy="40" rx="3" ry="55" fill="#fff" opacity="0.3"/>
    </g>
  </g>

  <!-- Sea foam / splashes -->
  <ellipse cx="240" cy="320" rx="100" ry="4" fill="#fff" opacity="0.2"/>
  <ellipse cx="280" cy="325" rx="60" ry="3" fill="#fff" opacity="0.15"/>

  <rect width="600" height="400" filter="url(#noise-na)" opacity="0.4"/>

  <radialGradient id="vig-na" cx="0.5" cy="0.5" r="0.7">
    <stop offset="55%" stop-color="#000" stop-opacity="0"/>
    <stop offset="100%" stop-color="#000" stop-opacity="0.7"/>
  </radialGradient>
  <rect width="600" height="400" fill="url(#vig-na)"/>

  <rect x="20" y="340" width="450" height="50" fill="#0d0e12" opacity="0.9"/>
  <rect x="20" y="340" width="3" height="50" fill="#c9a961"/>
  <text x="38" y="362" font-family="Georgia, serif" font-size="18" font-weight="700" fill="#c9a961" letter-spacing="2">NAUTERRA · CONSERVAS CALVO</text>
  <text x="38" y="380" font-family="Arial, sans-serif" font-size="9" fill="#a0aec0" letter-spacing="3">CIERRE FÁBRICA ESTEIRO · MUROS · A CORUÑA</text>
</svg>
