<svg xmlns="http://www.w3.org/2000/svg" viewBox="0 0 600 400" width="600" height="400" preserveAspectRatio="xMidYMid slice">
  <defs>
    <!-- Background sky gradient (dawn) -->
    <linearGradient id="sky-sada" x1="0" y1="0" x2="0" y2="1">
      <stop offset="0%" stop-color="#3a2e1e"/>
      <stop offset="40%" stop-color="#5a4630"/>
      <stop offset="100%" stop-color="#8a6e4a"/>
    </linearGradient>
    <!-- Ground -->
    <linearGradient id="ground-sada" x1="0" y1="0" x2="0" y2="1">
      <stop offset="0%" stop-color="#3a3530"/>
      <stop offset="100%" stop-color="#1a1614"/>
    </linearGradient>
    <!-- Building concrete -->
    <linearGradient id="concrete-sada" x1="0" y1="0" x2="0" y2="1">
      <stop offset="0%" stop-color="#9a7a5a"/>
      <stop offset="50%" stop-color="#7a5a3a"/>
      <stop offset="100%" stop-color="#5a3a1a"/>
    </linearGradient>
    <!-- Roof metal -->
    <linearGradient id="roof-sada" x1="0" y1="0" x2="0" y2="1">
      <stop offset="0%" stop-color="#4a4030"/>
      <stop offset="100%" stop-color="#2a2010"/>
    </linearGradient>
    <!-- Silo metal -->
    <linearGradient id="silo-sada" x1="0" y1="0" x2="1" y2="0">
      <stop offset="0%" stop-color="#3a3a3a"/>
      <stop offset="40%" stop-color="#7a7a7a"/>
      <stop offset="60%" stop-color="#5a5a5a"/>
      <stop offset="100%" stop-color="#2a2a2a"/>
    </linearGradient>
    <!-- Gold accent for text -->
    <linearGradient id="gold-sada" x1="0" y1="0" x2="0" y2="1">
      <stop offset="0%" stop-color="#e8c878"/>
      <stop offset="100%" stop-color="#8a7842"/>
    </linearGradient>
    <radialGradient id="glow-sada" cx="0.5" cy="0.5" r="0.6">
      <stop offset="0%" stop-color="#c9a961" stop-opacity="0.25"/>
      <stop offset="100%" stop-color="#c9a961" stop-opacity="0"/>
    </radialGradient>
    <!-- Noise filter -->
    <filter id="noise-sada">
      <feTurbulence type="fractalNoise" baseFrequency="0.9" numOctaves="2" seed="3"/>
      <feColorMatrix values="0 0 0 0 0 0 0 0 0 0 0 0 0 0 0 0 0 0 0.15 0"/>
      <feComposite in2="SourceGraphic" operator="in"/>
    </filter>
  </defs>

  <!-- Sky -->
  <rect width="600" height="280" fill="url(#sky-sada)"/>
  <!-- Ground -->
  <rect y="280" width="600" height="120" fill="url(#ground-sada)"/>
  <!-- Distant glow -->
  <circle cx="300" cy="200" r="200" fill="url(#glow-sada)"/>

  <!-- Distant tree line -->
  <path d="M0 240 L40 230 L80 235 L120 225 L160 232 L200 228 L240 233 L280 226 L320 234 L360 230 L400 235 L440 228 L480 232 L520 230 L560 234 L600 228 L600 280 L0 280 Z" fill="#1a1410" opacity="0.7"/>

  <!-- Main industrial building (avícola SADA) -->
  <g>
    <!-- Side wall -->
    <path d="M120 280 L120 160 L180 100 L180 280 Z" fill="url(#concrete-sada)"/>
    <!-- Front wall (main) -->
    <path d="M180 280 L180 100 L420 100 L420 280 Z" fill="url(#concrete-sada)"/>
    <!-- Roof -->
    <path d="M180 100 L300 60 L420 100 Z" fill="url(#roof-sada)"/>
    <path d="M180 100 L300 60 L420 100 L420 110 L300 70 L180 110 Z" fill="#1a1208" opacity="0.4"/>
    <!-- Roof corrugated lines -->
    <line x1="200" y1="95" x2="220" y2="78" stroke="#0a0a0a" stroke-width="0.8" opacity="0.6"/>
    <line x1="240" y1="90" x2="260" y2="73" stroke="#0a0a0a" stroke-width="0.8" opacity="0.6"/>
    <line x1="280" y1="85" x2="300" y2="68" stroke="#0a0a0a" stroke-width="0.8" opacity="0.6"/>
    <line x1="320" y1="85" x2="340" y2="68" stroke="#0a0a0a" stroke-width="0.8" opacity="0.6"/>
    <line x1="360" y1="90" x2="380" y2="73" stroke="#0a0a0a" stroke-width="0.8" opacity="0.6"/>
    <line x1="400" y1="95" x2="420" y2="78" stroke="#0a0a0a" stroke-width="0.8" opacity="0.6"/>
    <!-- Saw-tooth roof sections -->
    <path d="M180 100 L195 85 L195 115 L210 100 L210 130 L225 115 L225 145 L240 130 L240 160 L255 145 L255 175 L270 160 L270 190 L285 175 L285 205 L300 190 L300 220 L315 205 L315 235 L330 220 L330 250 L345 235 L345 265 L360 250 L360 280 L180 280" fill="none" stroke="#1a1208" stroke-width="1.5" opacity="0.7"/>

    <!-- Windows (cámaras avícolas) -->
    <g fill="#1a1408" opacity="0.85">
      <rect x="200" y="180" width="35" height="40"/>
      <rect x="250" y="180" width="35" height="40"/>
      <rect x="300" y="180" width="35" height="40"/>
      <rect x="350" y="180" width="35" height="40"/>
    </g>
    <!-- Window frames -->
    <g fill="none" stroke="#3a2a18" stroke-width="1.5">
      <rect x="200" y="180" width="35" height="40"/>
      <rect x="250" y="180" width="35" height="40"/>
      <rect x="300" y="180" width="35" height="40"/>
      <rect x="350" y="180" width="35" height="40"/>
      <line x1="217" y1="180" x2="217" y2="220"/>
      <line x1="267" y1="180" x2="267" y2="220"/>
      <line x1="317" y1="180" x2="317" y2="220"/>
      <line x1="367" y1="180" x2="367" y2="220"/>
    </g>
    <!-- Window reflection -->
    <line x1="202" y1="183" x2="232" y2="183" stroke="#5a4a30" stroke-width="0.6" opacity="0.5"/>
    <line x1="252" y1="183" x2="282" y2="183" stroke="#5a4a30" stroke-width="0.6" opacity="0.5"/>
    <line x1="302" y1="183" x2="332" y2="183" stroke="#5a4a30" stroke-width="0.6" opacity="0.5"/>
    <line x1="352" y1="183" x2="382" y2="183" stroke="#5a4a30" stroke-width="0.6" opacity="0.5"/>

    <!-- Big loading door -->
    <rect x="200" y="225" width="200" height="55" fill="#0a0805"/>
    <line x1="220" y1="225" x2="220" y2="280" stroke="#2a1a08" stroke-width="1"/>
    <line x1="240" y1="225" x2="240" y2="280" stroke="#2a1a08" stroke-width="1"/>
    <line x1="260" y1="225" x2="260" y2="280" stroke="#2a1a08" stroke-width="1"/>
    <line x1="280" y1="225" x2="280" y2="280" stroke="#2a1a08" stroke-width="1"/>
    <line x1="300" y1="225" x2="300" y2="280" stroke="#2a1a08" stroke-width="1"/>
    <line x1="320" y1="225" x2="320" y2="280" stroke="#2a1a08" stroke-width="1"/>
    <line x1="340" y1="225" x2="340" y2="280" stroke="#2a1a08" stroke-width="1"/>
    <line x1="360" y1="225" x2="360" y2="280" stroke="#2a1a08" stroke-width="1"/>
    <line x1="380" y1="225" x2="380" y2="280" stroke="#2a1a08" stroke-width="1"/>
  </g>

  <!-- Silo (pienso) -->
  <g>
    <ellipse cx="450" cy="120" rx="22" ry="6" fill="url(#silo-sada)"/>
    <path d="M428 120 L428 280 Q428 290 450 290 Q472 290 472 280 L472 120" fill="url(#silo-sada)"/>
    <ellipse cx="450" cy="280" rx="22" ry="6" fill="#1a1a1a"/>
    <ellipse cx="450" cy="120" rx="22" ry="6" fill="#5a5a5a"/>
    <!-- Silo ladder -->
    <line x1="445" y1="120" x2="445" y2="280" stroke="#0a0a0a" stroke-width="0.8"/>
    <line x1="438" y1="125" x2="438" y2="280" stroke="#0a0a0a" stroke-width="0.6"/>
    <line x1="441" y1="135" x2="452" y2="135" stroke="#1a1a1a" stroke-width="0.5"/>
    <line x1="441" y1="155" x2="452" y2="155" stroke="#1a1a1a" stroke-width="0.5"/>
    <line x1="441" y1="175" x2="452" y2="175" stroke="#1a1a1a" stroke-width="0.5"/>
    <line x1="441" y1="195" x2="452" y2="195" stroke="#1a1a1a" stroke-width="0.5"/>
    <line x1="441" y1="215" x2="452" y2="215" stroke="#1a1a1a" stroke-width="0.5"/>
    <line x1="441" y1="235" x2="452" y2="235" stroke="#1a1a1a" stroke-width="0.5"/>
    <line x1="441" y1="255" x2="452" y2="255" stroke="#1a1a1a" stroke-width="0.5"/>
  </g>

  <!-- Chimenea -->
  <g>
    <rect x="490" y="50" width="14" height="230" fill="url(#concrete-sada)"/>
    <rect x="488" y="48" width="18" height="6" fill="#3a2a18"/>
    <rect x="490" y="50" width="14" height="6" fill="#5a4030"/>
    <!-- Smoke -->
    <ellipse cx="497" cy="40" rx="10" ry="14" fill="#3a3530" opacity="0.5"/>
    <ellipse cx="494" cy="25" rx="12" ry="16" fill="#2a2520" opacity="0.4"/>
    <ellipse cx="500" cy="10" rx="14" ry="18" fill="#1a1815" opacity="0.3"/>
  </g>

  <!-- Second smaller building (Valladolid) -->
  <g>
    <path d="M515 280 L515 180 L545 160 L545 280 Z" fill="url(#concrete-sada)" opacity="0.9"/>
    <path d="M545 180 L575 160 L575 280 L545 280 Z" fill="#6a4a2a" opacity="0.9"/>
    <path d="M515 180 L545 160 L575 180 Z" fill="url(#roof-sada)"/>
    <rect x="520" y="200" width="12" height="14" fill="#1a1208"/>
    <rect x="555" y="200" width="12" height="14" fill="#1a1208"/>
  </g>

  <!-- Foreground truck -->
  <g transform="translate(60,260)">
    <rect x="0" y="0" width="60" height="22" fill="#2a2a2a"/>
    <rect x="0" y="0" width="60" height="3" fill="#5a5a5a"/>
    <rect x="50" y="-10" width="14" height="14" fill="#3a3a3a"/>
    <rect x="52" y="-8" width="10" height="8" fill="#1a1a1a"/>
    <circle cx="14" cy="22" r="4" fill="#1a1a1a"/>
    <circle cx="44" cy="22" r="4" fill="#1a1a1a"/>
    <circle cx="14" cy="22" r="2" fill="#5a5a5a"/>
    <circle cx="44" cy="22" r="2" fill="#5a5a5a"/>
  </g>

  <!-- Ground texture marks -->
  <line x1="0" y1="290" x2="600" y2="290" stroke="#0a0a0a" stroke-width="0.5" opacity="0.5"/>
  <line x1="0" y1="305" x2="600" y2="305" stroke="#1a1a1a" stroke-width="0.3" opacity="0.3"/>
  <line x1="0" y1="320" x2="600" y2="320" stroke="#0a0a0a" stroke-width="0.3" opacity="0.3"/>

  <!-- Subtle noise overlay -->
  <rect width="600" height="400" filter="url(#noise-sada)" opacity="0.4"/>

  <!-- Vignette -->
  <radialGradient id="vig-sada" cx="0.5" cy="0.5" r="0.7">
    <stop offset="60%" stop-color="#000" stop-opacity="0"/>
    <stop offset="100%" stop-color="#000" stop-opacity="0.6"/>
  </radialGradient>
  <rect width="600" height="400" fill="url(#vig-sada)"/>

  <!-- Title overlay -->
  <rect x="20" y="340" width="380" height="50" fill="#0d0e12" opacity="0.85"/>
  <rect x="20" y="340" width="3" height="50" fill="url(#gold-sada)"/>
  <text x="38" y="362" font-family="Georgia, serif" font-size="20" font-weight="700" fill="#c9a961" letter-spacing="2">SADA · NUTRECO</text>
  <text x="38" y="380" font-family="Arial, sans-serif" font-size="9" fill="#a0aec0" letter-spacing="3">DESIMPLANTACIÓN AVÍCOLA · LA RINCONADA (SEVILLA) · VALLADOLID</text>
</svg>
