<svg xmlns="http://www.w3.org/2000/svg" viewBox="0 0 600 400" width="600" height="400" preserveAspectRatio="xMidYMid slice">
  <defs>
    <linearGradient id="cave-bg" x1="0" y1="0" x2="0" y2="1">
      <stop offset="0%" stop-color="#1a1208"/>
      <stop offset="60%" stop-color="#2a1c0e"/>
      <stop offset="100%" stop-color="#3a2818"/>
    </linearGradient>
    <radialGradient id="cave-light" cx="0.5" cy="0.4" r="0.5">
      <stop offset="0%" stop-color="#c9a961" stop-opacity="0.3"/>
      <stop offset="100%" stop-color="#000" stop-opacity="0"/>
    </radialGradient>
    <linearGradient id="barrel-w" x1="0" y1="0" x2="1" y2="0">
      <stop offset="0%" stop-color="#2a1808"/>
      <stop offset="30%" stop-color="#6a4818"/>
      <stop offset="50%" stop-color="#8a6428"/>
      <stop offset="70%" stop-color="#6a4818"/>
      <stop offset="100%" stop-color="#2a1808"/>
    </linearGradient>
    <linearGradient id="barrel-r" x1="0" y1="0" x2="1" y2="0">
      <stop offset="0%" stop-color="#2a1808"/>
      <stop offset="30%" stop-color="#7a3018"/>
      <stop offset="50%" stop-color="#a04020"/>
      <stop offset="70%" stop-color="#7a3018"/>
      <stop offset="100%" stop-color="#2a1808"/>
    </linearGradient>
    <linearGradient id="inox" x1="0" y1="0" x2="1" y2="0">
      <stop offset="0%" stop-color="#3a3a3a"/>
      <stop offset="40%" stop-color="#9a9a9a"/>
      <stop offset="60%" stop-color="#6a6a6a"/>
      <stop offset="100%" stop-color="#1a1a1a"/>
    </linearGradient>
    <filter id="noise-bo">
      <feTurbulence type="fractalNoise" baseFrequency="0.7" numOctaves="2" seed="11"/>
      <feColorMatrix values="0 0 0 0 0 0 0 0 0 0 0 0 0 0 0 0 0 0 0.15 0"/>
    </filter>
  </defs>

  <rect width="600" height="400" fill="url(#cave-bg)"/>
  <ellipse cx="300" cy="160" rx="300" ry="180" fill="url(#cave-light)"/>

  <!-- Stone arch ceiling -->
  <path d="M0 100 Q150 30 300 30 Q450 30 600 100 L600 0 L0 0 Z" fill="#1a1208" opacity="0.7"/>
  <!-- Stone blocks texture -->
  <g fill="#3a2a18" opacity="0.4">
    <rect x="20" y="20" width="40" height="20"/>
    <rect x="80" y="10" width="50" height="18"/>
    <rect x="150" y="25" width="35" height="22"/>
    <rect x="200" y="8" width="45" height="20"/>
    <rect x="270" y="18" width="40" height="20"/>
    <rect x="330" y="6" width="50" height="22"/>
    <rect x="400" y="20" width="45" height="20"/>
    <rect x="460" y="10" width="40" height="22"/>
    <rect x="520" y="25" width="60" height="20"/>
  </g>

  <!-- Floor -->
  <rect y="320" width="600" height="80" fill="#1a0e04"/>
  <ellipse cx="300" cy="320" rx="300" ry="15" fill="#2a1c0e" opacity="0.6"/>

  <!-- Back row: large steel inox tanks (depositos) -->
  <g>
    <!-- Tank 1 -->
    <ellipse cx="80" cy="130" rx="50" ry="14" fill="url(#inox)"/>
    <path d="M30 130 L30 280 Q30 320 80 320 Q130 320 130 280 L130 130" fill="url(#inox)"/>
    <ellipse cx="80" cy="130" rx="50" ry="14" fill="none" stroke="#1a1a1a" stroke-width="1"/>
    <ellipse cx="80" cy="280" rx="50" ry="14" fill="none" stroke="#1a1a1a" stroke-width="0.8" opacity="0.6"/>
    <!-- Top hatch -->
    <ellipse cx="80" cy="130" rx="14" ry="4" fill="#5a5a5a"/>
    <line x1="80" y1="120" x2="80" y2="100" stroke="#5a5a5a" stroke-width="2"/>
    <ellipse cx="80" cy="100" rx="10" ry="3" fill="none" stroke="#5a5a5a" stroke-width="1.5"/>
    <!-- Bolts -->
    <circle cx="40" cy="135" r="1.5" fill="#1a1a1a"/>
    <circle cx="60" cy="135" r="1.5" fill="#1a1a1a"/>
    <circle cx="100" cy="135" r="1.5" fill="#1a1a1a"/>
    <circle cx="120" cy="135" r="1.5" fill="#1a1a1a"/>
    <!-- Light reflection -->
    <ellipse cx="65" cy="180" rx="4" ry="40" fill="#fff" opacity="0.25"/>
  </g>

  <!-- Tank 2 (largest, center) -->
  <g>
    <ellipse cx="220" cy="100" rx="80" ry="20" fill="url(#inox)"/>
    <path d="M140 100 L140 310 Q140 350 220 350 Q300 350 300 310 L300 100" fill="url(#inox)"/>
    <ellipse cx="220" cy="100" rx="80" ry="20" fill="none" stroke="#1a1a1a" stroke-width="1"/>
    <ellipse cx="220" cy="310" rx="80" ry="20" fill="none" stroke="#1a1a1a" stroke-width="0.8" opacity="0.6"/>
    <!-- Top hatch -->
    <ellipse cx="220" cy="100" rx="22" ry="6" fill="#5a5a5a"/>
    <line x1="220" y1="88" x2="220" y2="60" stroke="#5a5a5a" stroke-width="2.5"/>
    <ellipse cx="220" cy="60" rx="16" ry="5" fill="none" stroke="#5a5a5a" stroke-width="2"/>
    <!-- Side ladder -->
    <line x1="155" y1="115" x2="155" y2="310" stroke="#1a1a1a" stroke-width="0.8"/>
    <line x1="165" y1="115" x2="165" y2="310" stroke="#1a1a1a" stroke-width="0.6"/>
    <line x1="155" y1="135" x2="165" y2="135" stroke="#1a1a1a" stroke-width="0.5"/>
    <line x1="155" y1="155" x2="165" y2="155" stroke="#1a1a1a" stroke-width="0.5"/>
    <line x1="155" y1="175" x2="165" y2="175" stroke="#1a1a1a" stroke-width="0.5"/>
    <line x1="155" y1="195" x2="165" y2="195" stroke="#1a1a1a" stroke-width="0.5"/>
    <line x1="155" y1="215" x2="165" y2="215" stroke="#1a1a1a" stroke-width="0.5"/>
    <line x1="155" y1="235" x2="165" y2="235" stroke="#1a1a1a" stroke-width="0.5"/>
    <line x1="155" y1="255" x2="165" y2="255" stroke="#1a1a1a" stroke-width="0.5"/>
    <line x1="155" y1="275" x2="165" y2="275" stroke="#1a1a1a" stroke-width="0.5"/>
    <!-- Bolts ring -->
    <circle cx="160" cy="105" r="1.5" fill="#1a1a1a"/>
    <circle cx="180" cy="105" r="1.5" fill="#1a1a1a"/>
    <circle cx="220" cy="105" r="1.5" fill="#1a1a1a"/>
    <circle cx="260" cy="105" r="1.5" fill="#1a1a1a"/>
    <circle cx="280" cy="105" r="1.5" fill="#1a1a1a"/>
    <!-- Reflection -->
    <ellipse cx="195" cy="200" rx="6" ry="60" fill="#fff" opacity="0.3"/>
    <ellipse cx="245" cy="220" rx="3" ry="40" fill="#fff" opacity="0.2"/>
  </g>

  <!-- Tank 3 -->
  <g>
    <ellipse cx="380" cy="115" rx="65" ry="16" fill="url(#inox)"/>
    <path d="M315 115 L315 305 Q315 335 380 335 Q445 335 445 305 L445 115" fill="url(#inox)"/>
    <ellipse cx="380" cy="115" rx="65" ry="16" fill="none" stroke="#1a1a1a" stroke-width="1"/>
    <ellipse cx="380" cy="305" rx="65" ry="16" fill="none" stroke="#1a1a1a" stroke-width="0.8" opacity="0.6"/>
    <ellipse cx="380" cy="115" rx="18" ry="5" fill="#5a5a5a"/>
    <line x1="380" y1="105" x2="380" y2="85" stroke="#5a5a5a" stroke-width="2"/>
    <ellipse cx="380" cy="85" rx="12" ry="4" fill="none" stroke="#5a5a5a" stroke-width="1.5"/>
    <circle cx="335" cy="118" r="1.5" fill="#1a1a1a"/>
    <circle cx="360" cy="118" r="1.5" fill="#1a1a1a"/>
    <circle cx="400" cy="118" r="1.5" fill="#1a1a1a"/>
    <circle cx="425" cy="118" r="1.5" fill="#1a1a1a"/>
    <ellipse cx="355" cy="200" rx="5" ry="50" fill="#fff" opacity="0.25"/>
  </g>

  <!-- Wood barrel (foreground hero) -->
  <g>
    <ellipse cx="500" cy="250" rx="50" ry="14" fill="url(#barrel-w)"/>
    <path d="M450 250 L450 340 Q450 360 500 360 Q550 360 550 340 L550 250" fill="url(#barrel-w)"/>
    <ellipse cx="500" cy="340" rx="50" ry="14" fill="#1a0e04"/>
    <ellipse cx="500" cy="250" rx="50" ry="14" fill="none" stroke="#0a0604" stroke-width="0.8"/>
    <!-- Iron rings -->
    <ellipse cx="500" cy="270" rx="52" ry="15" fill="none" stroke="#0a0604" stroke-width="3"/>
    <ellipse cx="500" cy="295" rx="55" ry="16" fill="none" stroke="#0a0604" stroke-width="3"/>
    <ellipse cx="500" cy="320" rx="52" ry="15" fill="none" stroke="#0a0604" stroke-width="3"/>
    <!-- Wood staves lines -->
    <line x1="460" y1="250" x2="460" y2="340" stroke="#1a0e04" stroke-width="0.6"/>
    <line x1="475" y1="250" x2="475" y2="340" stroke="#1a0e04" stroke-width="0.6"/>
    <line x1="490" y1="250" x2="490" y2="340" stroke="#1a0e04" stroke-width="0.6"/>
    <line x1="510" y1="250" x2="510" y2="340" stroke="#1a0e04" stroke-width="0.6"/>
    <line x1="525" y1="250" x2="525" y2="340" stroke="#1a0e04" stroke-width="0.6"/>
    <line x1="540" y1="250" x2="540" y2="340" stroke="#1a0e04" stroke-width="0.6"/>
  </g>

  <!-- Wood barrel small foreground -->
  <g>
    <ellipse cx="40" cy="290" rx="35" ry="10" fill="url(#barrel-w)"/>
    <path d="M5 290 L5 350 Q5 365 40 365 Q75 365 75 350 L75 290" fill="url(#barrel-w)"/>
    <ellipse cx="40" cy="290" rx="35" ry="10" fill="none" stroke="#0a0604" stroke-width="0.6"/>
    <ellipse cx="40" cy="305" rx="36" ry="11" fill="none" stroke="#0a0604" stroke-width="2"/>
    <ellipse cx="40" cy="325" rx="37" ry="11" fill="none" stroke="#0a0604" stroke-width="2"/>
    <ellipse cx="40" cy="345" rx="36" ry="11" fill="none" stroke="#0a0604" stroke-width="2"/>
  </g>

  <rect width="600" height="400" filter="url(#noise-bo)" opacity="0.4"/>

  <radialGradient id="vig-bo" cx="0.5" cy="0.5" r="0.7">
    <stop offset="55%" stop-color="#000" stop-opacity="0"/>
    <stop offset="100%" stop-color="#000" stop-opacity="0.6"/>
  </radialGradient>
  <rect width="600" height="400" fill="url(#vig-bo)"/>

  <rect x="20" y="340" width="450" height="50" fill="#0d0e12" opacity="0.9"/>
  <rect x="20" y="340" width="3" height="50" fill="#c9a961"/>
  <text x="38" y="362" font-family="Georgia, serif" font-size="18" font-weight="700" fill="#c9a961" letter-spacing="2">CASALOBOS · DARIEN</text>
  <text x="38" y="380" font-family="Arial, sans-serif" font-size="9" fill="#a0aec0" letter-spacing="3">BODEGAS · SUBASTA VITIVINÍCOLA · CIUDAD REAL · LOGROÑO</text>
</svg>
